<svg width="168" height="64" viewBox="0 0 168 64" fill="none" xmlns="http://www.w3.org/2000/svg">
<g clip-path="url(#clip0_64_24685)">
<path d="M22.3745 64C18.3273 64 14.3564 62.9346 10.8436 60.8038C4.04727 56.6944 0 49.541 0 41.7027C0 37.7455 1.06909 33.8644 3.05455 30.44C3.28364 29.9834 4.96364 27.1677 16.8764 6.54459C19.7782 1.5981 22.2982 0.1522 28.8655 0H28.9418H54.8291L39.48 26.5589L41.5418 30.1356C43.6036 33.6361 44.7491 37.5933 44.7491 41.6266C44.7491 53.9548 34.6691 64 22.3745 64Z" fill="white"/>
<path d="M36.5018 26.5589L50.4763 2.51135H28.9418C22.9854 2.66355 21.3818 3.88115 19.0909 7.83834L5.26905 31.7337C3.51269 34.6255 2.51996 38.05 2.51996 41.7028C2.51996 48.9323 6.33814 55.1725 12.1418 58.6731C15.12 60.4234 18.6327 61.4888 22.3745 61.4888C33.2945 61.4888 42.2291 52.6612 42.2291 41.7028C42.2291 37.9739 41.16 34.4733 39.4036 31.5054L36.5018 26.5589Z" fill="white"/>
<path d="M33.3709 41.7028C33.3709 47.7908 28.4073 52.6611 22.3745 52.6611C16.2654 52.6611 11.3782 47.7147 11.3782 41.7028C11.3782 35.6148 16.3418 30.7444 22.3745 30.7444C28.4836 30.7444 33.3709 35.6148 33.3709 41.7028Z" fill="#00A19C"/>
<path d="M36.5018 26.5589L50.4763 2.51135H28.9418C22.9854 2.66355 21.3818 3.88115 19.0909 7.83834L5.26905 31.7337C3.51269 34.6255 2.51996 38.05 2.51996 41.7028C2.51996 48.9323 6.33814 55.1725 12.1418 58.6731C15.12 60.4234 18.6327 61.4888 22.3745 61.4888C33.2945 61.4888 42.2291 52.6612 42.2291 41.7028C42.2291 37.9739 41.16 34.4733 39.4036 31.5054L36.5018 26.5589ZM29.0945 7.61005H41.6945L33.6 21.5363L30.8509 16.742L25.7345 7.91444C26.4218 7.68614 27.4909 7.61005 29.0945 7.61005ZM22.3745 56.3901C18.7854 56.3901 15.4254 55.0964 12.829 52.9656C9.62178 50.3021 7.55996 46.1927 7.55996 41.7028C7.55996 38.9632 8.3236 36.4519 9.62178 34.245C9.62178 34.245 22.2981 12.3282 22.3745 12.2521L27.3381 20.7753L35.1272 34.245C36.4254 36.4519 37.1891 38.9632 37.1891 41.7028C37.1127 49.8455 30.5454 56.3901 22.3745 56.3901Z" fill="#00A19C"/>
<path d="M105.993 29.9834C105.993 26.8633 103.702 25.0369 100.189 25.0369H94.6909C94.1564 25.0369 93.6982 25.4935 93.6982 25.9501V38.9631H97.5928V35.4625C97.5928 35.2342 97.8218 35.0059 98.0509 35.0059H99.4255L102.098 38.9631H106.604L103.396 34.321C105 33.484 105.993 32.0381 105.993 29.9834ZM102.098 30.1356C102.098 31.201 101.258 31.962 99.8837 31.962H97.5928V28.918C97.5928 28.6136 97.8982 28.3092 98.2037 28.3092H99.8837C101.335 28.2331 102.098 28.918 102.098 30.1356Z" fill="#3D3935"/>
<path d="M115.08 24.7324C110.804 24.7324 107.52 28.0047 107.52 31.9619C107.52 35.9952 110.727 39.1914 115.004 39.1914C119.28 39.1914 122.564 35.9191 122.564 31.9619C122.64 27.9286 119.433 24.7324 115.08 24.7324ZM118.669 32.038C118.669 34.0166 117.295 35.7669 115.08 35.7669C112.942 35.7669 111.491 34.0166 111.491 32.038V31.9619C111.491 29.9833 112.942 28.233 115.004 28.233C117.218 28.233 118.669 29.9833 118.669 32.038Z" fill="#3D3935"/>
<path d="M134.018 25.8739V32.3424L128.291 24.9607H125.695C125.16 24.9607 124.702 25.4173 124.702 25.95V38.887H128.52V31.277L134.476 38.887H137.836V25.0368H135.011C134.476 25.0368 134.018 25.4173 134.018 25.8739Z" fill="#3D3935"/>
<path d="M79.571 25.95V28.3852H83.771V38.887H87.6655V28.8418C87.6655 28.6135 87.8946 28.3852 88.1237 28.3852H91.8655V24.9607H80.5637C80.0291 25.0368 79.571 25.4934 79.571 25.95Z" fill="#3D3935"/>
<path d="M66.5891 25.95V38.887H77.8146V35.6147H70.4073V33.9405C70.4073 33.7122 70.6364 33.4078 70.8655 33.4078H76.8982V30.3638H70.3309V28.7657C70.3309 28.5374 70.56 28.233 70.7891 28.233H77.7382V24.9607H67.5818C67.0473 25.0368 66.5891 25.4173 66.5891 25.95Z" fill="#3D3935"/>
<path d="M162.807 30.2877C160.898 29.8311 160.364 29.6028 160.364 28.9179C160.364 28.3852 160.822 28.0047 161.738 28.0047C162.578 28.0047 163.495 28.233 164.411 28.6896C164.411 28.6896 164.64 28.7657 164.716 28.8418C164.945 28.994 165.251 29.0701 165.633 28.994C165.938 28.9179 166.091 28.6896 166.32 28.3852L167.542 26.711C166.015 25.4934 164.182 24.8846 161.815 24.8846C158.455 24.8846 156.393 26.7871 156.393 29.3745V29.4506C156.393 32.3424 158.684 33.1795 161.662 33.8644C163.571 34.321 164.029 34.6254 164.029 35.1581C164.029 35.7669 163.495 36.1474 162.425 36.1474C161.204 36.1474 160.058 35.843 158.913 35.1581C158.607 35.0059 158.225 34.7776 157.691 34.9298C157.462 35.0059 157.309 35.082 157.156 35.3103L155.705 37.0606C157.385 38.5826 159.753 39.3436 162.273 39.3436C165.633 39.3436 167.924 37.6694 167.924 34.7776V34.7015C168 32.038 166.015 30.9726 162.807 30.2877Z" fill="#3D3935"/>
<path d="M143.716 38.9631L144.404 37.2128C144.48 36.9084 144.709 36.6801 145.015 36.604H149.978L150.971 38.9631H155.095L149.215 25.0369H146.007C145.549 25.113 145.32 25.3413 145.167 25.6457L139.516 38.9631H143.716ZM147.382 29.6029L148.909 33.56H145.778L147.382 29.6029Z" fill="#3D3935"/>
<path d="M56.5855 38.9631C56.5855 37.8977 56.5855 35.6147 56.5855 35.4625C56.5855 35.3103 56.7382 35.082 56.8909 35.0059C56.9673 35.0059 57.0437 35.0059 57.12 35.0059C57.6546 35.0059 58.1127 35.0059 58.6473 35.0059C59.7164 35.0059 60.7091 34.9299 61.7018 34.5494C62.7709 34.1689 63.6873 33.5601 64.2218 32.5708C64.8327 31.6576 64.9855 30.5161 64.9091 29.4507C64.8327 28.6136 64.6037 27.8526 64.1455 27.1677C63.1527 25.7218 61.4727 25.113 59.7927 25.0369C59.5637 25.0369 59.3346 25.0369 59.1055 25.0369C58.4182 25.0369 57.8073 25.0369 57.12 25.0369C56.2037 25.0369 55.2873 25.0369 54.3709 25.0369C53.6837 25.0369 52.6146 25.0369 52.6146 25.9501C52.6146 26.4067 52.6146 26.8633 52.6146 27.3199V38.9631H56.5855ZM61.0909 30.1356C61.0909 31.201 60.2509 31.962 58.8764 31.962H56.5855V28.918C56.5855 28.6136 56.8909 28.3092 57.1964 28.3092H58.8764C60.2509 28.2331 61.0909 28.918 61.0909 30.1356Z" fill="#3D3935"/>
</g>
<defs>
<clipPath id="clip0_64_24685">
<rect width="168" height="64" fill="white"/>
</clipPath>
</defs>
</svg>
