<svg width="117" height="44" viewBox="0 0 117 44" fill="none" xmlns="http://www.w3.org/2000/svg">
<g clip-path="url(#clip0_64_24703)">
<path d="M15.5823 44C12.7636 44 9.99818 43.2675 7.55182 41.8026C2.81864 38.9774 0 34.0595 0 28.6706C0 25.9501 0.744546 23.2818 2.12727 20.9275C2.28682 20.6136 3.45682 18.6778 11.7532 4.49941C13.7741 1.09869 15.5291 0.104637 20.1027 0H20.1559H38.1845L27.495 18.2592L28.9309 20.7182C30.3668 23.1249 31.1645 25.8454 31.1645 28.6183C31.1645 37.0939 24.1445 44 15.5823 44Z" fill="white"/>
<path d="M25.4209 18.2593L35.1532 1.72656H20.1559C16.0077 1.8312 14.8909 2.6683 13.2955 5.38887L3.66955 21.8169C2.44637 23.805 1.755 26.1594 1.755 28.6707C1.755 33.641 4.4141 37.9311 8.45591 40.3377C10.53 41.5411 12.9764 42.2735 15.5823 42.2735C23.1873 42.2735 29.4095 36.2046 29.4095 28.6707C29.4095 26.1071 28.665 23.7004 27.4418 21.66L25.4209 18.2593Z" fill="white"/>
<path d="M23.2404 28.6706C23.2404 32.8561 19.7836 36.2045 15.5823 36.2045C11.3277 36.2045 7.92407 32.8038 7.92407 28.6706C7.92407 24.4851 11.3809 21.1367 15.5823 21.1367C19.8368 21.1367 23.2404 24.4851 23.2404 28.6706Z" fill="#00A19C"/>
<path d="M25.4209 18.2593L35.1532 1.72656H20.1559C16.0077 1.8312 14.8909 2.6683 13.2955 5.38887L3.66955 21.8169C2.44637 23.805 1.755 26.1594 1.755 28.6707C1.755 33.641 4.4141 37.9311 8.45591 40.3377C10.53 41.5411 12.9764 42.2735 15.5823 42.2735C23.1873 42.2735 29.4095 36.2046 29.4095 28.6707C29.4095 26.1071 28.665 23.7004 27.4418 21.66L25.4209 18.2593ZM20.2623 5.23191H29.0373L23.4 14.8062L21.4855 11.5102L17.9223 5.44119C18.4009 5.28423 19.1455 5.23191 20.2623 5.23191ZM15.5823 38.7682C13.0827 38.7682 10.7427 37.8788 8.93455 36.4138C6.70091 34.5827 5.265 31.7575 5.265 28.6707C5.265 26.7872 5.79682 25.0607 6.70091 23.5435C6.70091 23.5435 15.5291 8.47567 15.5823 8.42335L19.0391 14.283L24.4636 23.5435C25.3677 25.0607 25.8995 26.7872 25.8995 28.6707C25.8464 34.2688 21.2727 38.7682 15.5823 38.7682Z" fill="#00A19C"/>
<path d="M73.8164 20.6136C73.8164 18.4685 72.2209 17.2129 69.7745 17.2129H65.9455C65.5732 17.2129 65.2541 17.5268 65.2541 17.8407V26.7872H67.9664V24.3805C67.9664 24.2236 68.1259 24.0666 68.2855 24.0666H69.2427L71.1041 26.7872H74.2418L72.0082 23.5958C73.125 23.0203 73.8164 22.0262 73.8164 20.6136ZM71.1041 20.7182C71.1041 21.4507 70.5191 21.9739 69.5618 21.9739H67.9664V19.8811C67.9664 19.6719 68.1791 19.4626 68.3918 19.4626H69.5618C70.5723 19.4103 71.1041 19.8811 71.1041 20.7182Z" fill="white"/>
<path d="M80.145 17.0034C77.1668 17.0034 74.88 19.2531 74.88 21.9737C74.88 24.7466 77.1136 26.944 80.0918 26.944C83.07 26.944 85.3568 24.6943 85.3568 21.9737C85.41 19.2008 83.1764 17.0034 80.145 17.0034ZM82.6445 22.026C82.6445 23.3863 81.6873 24.5896 80.145 24.5896C78.6559 24.5896 77.6455 23.3863 77.6455 22.026V21.9737C77.6455 20.6134 78.6559 19.4101 80.0918 19.4101C81.6341 19.4101 82.6445 20.6134 82.6445 22.026Z" fill="white"/>
<path d="M93.3341 17.7885V22.2356L89.3455 17.1606H87.5373C87.165 17.1606 86.8459 17.4746 86.8459 17.8408V26.735H89.505V21.5031L93.6532 26.735H95.9932V17.213H94.0255C93.6532 17.213 93.3341 17.4746 93.3341 17.7885Z" fill="white"/>
<path d="M55.4155 17.8408V19.515H58.3405V26.735H61.0527V19.8289C61.0527 19.6719 61.2123 19.515 61.3718 19.515H63.9777V17.1606H56.1068C55.7346 17.213 55.4155 17.5269 55.4155 17.8408Z" fill="white"/>
<path d="M46.3745 17.8408V26.735H54.1923V24.4853H49.0336V23.3342C49.0336 23.1773 49.1932 22.968 49.3527 22.968H53.5541V20.8753H48.9805V19.7766C48.9805 19.6196 49.14 19.4103 49.2995 19.4103H54.1391V17.1606H47.0659C46.6936 17.213 46.3745 17.4746 46.3745 17.8408Z" fill="white"/>
<path d="M113.384 20.823C112.054 20.5091 111.682 20.3522 111.682 19.8813C111.682 19.5151 112.001 19.2535 112.639 19.2535C113.224 19.2535 113.862 19.4104 114.5 19.7243C114.5 19.7243 114.66 19.7767 114.713 19.829C114.873 19.9336 115.085 19.9859 115.351 19.9336C115.564 19.8813 115.67 19.7243 115.83 19.5151L116.681 18.364C115.617 17.5269 114.341 17.1084 112.692 17.1084C110.352 17.1084 108.916 18.4164 108.916 20.1952V20.2475C108.916 22.2356 110.512 22.8111 112.586 23.282C113.915 23.5959 114.235 23.8052 114.235 24.1714C114.235 24.59 113.862 24.8516 113.118 24.8516C112.267 24.8516 111.469 24.6423 110.671 24.1714C110.459 24.0668 110.193 23.9098 109.82 24.0145C109.661 24.0668 109.555 24.1191 109.448 24.2761L108.438 25.4794C109.608 26.5258 111.256 27.0489 113.011 27.0489C115.351 27.0489 116.947 25.8979 116.947 23.9098V23.8575C117 22.0264 115.617 21.2939 113.384 20.823Z" fill="white"/>
<path d="M100.088 26.7872L100.567 25.5839C100.62 25.3746 100.78 25.2176 100.992 25.1653H104.449L105.14 26.7872H108.012L103.917 17.2129H101.684C101.365 17.2652 101.205 17.4222 101.099 17.6314L97.1632 26.7872H100.088ZM102.641 20.352L103.705 23.0726H101.524L102.641 20.352Z" fill="white"/>
<path d="M39.4077 26.7872C39.4077 26.0547 39.4077 24.4852 39.4077 24.3805C39.4077 24.2759 39.5141 24.119 39.6205 24.0666C39.6736 24.0666 39.7268 24.0666 39.78 24.0666C40.1523 24.0666 40.4714 24.0666 40.8436 24.0666C41.5882 24.0666 42.2795 24.0143 42.9709 23.7527C43.7155 23.4911 44.3536 23.0726 44.7259 22.3924C45.1514 21.7646 45.2577 20.9798 45.2045 20.2474C45.1514 19.6719 44.9918 19.1487 44.6727 18.6778C43.9814 17.6838 42.8114 17.2652 41.6414 17.2129C41.4818 17.2129 41.3223 17.2129 41.1627 17.2129C40.6841 17.2129 40.2586 17.2129 39.78 17.2129C39.1418 17.2129 38.5036 17.2129 37.8655 17.2129C37.3868 17.2129 36.6423 17.2129 36.6423 17.8407C36.6423 18.1546 36.6423 18.4685 36.6423 18.7825V26.7872H39.4077ZM42.5455 20.7182C42.5455 21.4507 41.9605 21.9739 41.0032 21.9739H39.4077V19.8811C39.4077 19.6719 39.6205 19.4626 39.8332 19.4626H41.0032C41.9605 19.4103 42.5455 19.8811 42.5455 20.7182Z" fill="white"/>
</g>
<defs>
<clipPath id="clip0_64_24703">
<rect width="117" height="44" fill="white"/>
</clipPath>
</defs>
</svg>
