<svg width="116" height="116" viewBox="0 0 116 116" fill="none" xmlns="http://www.w3.org/2000/svg">
<path d="M48.9375 108.75H52.5625C53.0432 108.75 53.5042 108.559 53.8441 108.219C54.184 107.879 54.375 107.418 54.375 106.938C54.375 106.457 54.184 105.996 53.8441 105.656C53.5042 105.316 53.0432 105.125 52.5625 105.125H48.9375C48.4568 105.125 47.9958 105.316 47.6559 105.656C47.316 105.996 47.125 106.457 47.125 106.938C47.125 107.418 47.316 107.879 47.6559 108.219C47.9958 108.559 48.4568 108.75 48.9375 108.75Z" fill="white"/>
<path d="M52.5625 34.4375H47.125C46.6443 34.4375 46.1833 34.6285 45.8434 34.9684C45.5035 35.3083 45.3125 35.7693 45.3125 36.25V41.6875C45.3125 42.1682 45.5035 42.6292 45.8434 42.9691C46.1833 43.309 46.6443 43.5 47.125 43.5C47.6057 43.5 48.0667 43.309 48.4066 42.9691C48.7465 42.6292 48.9375 42.1682 48.9375 41.6875V38.0625H52.5625C53.0432 38.0625 53.5042 37.8715 53.8441 37.5316C54.184 37.1917 54.375 36.7307 54.375 36.25C54.375 35.7693 54.184 35.3083 53.8441 34.9684C53.5042 34.6285 53.0432 34.4375 52.5625 34.4375Z" fill="white"/>
<path d="M92.4375 36.25C92.4375 35.7693 92.2465 35.3083 91.9066 34.9684C91.5667 34.6285 91.1057 34.4375 90.625 34.4375H85.1875C84.7068 34.4375 84.2458 34.6285 83.9059 34.9684C83.566 35.3083 83.375 35.7693 83.375 36.25C83.375 36.7307 83.566 37.1917 83.9059 37.5316C84.2458 37.8715 84.7068 38.0625 85.1875 38.0625H88.8125V41.6875C88.8125 42.1682 89.0035 42.6292 89.3434 42.9691C89.6833 43.309 90.1443 43.5 90.625 43.5C91.1057 43.5 91.5667 43.309 91.9066 42.9691C92.2465 42.6292 92.4375 42.1682 92.4375 41.6875V36.25Z" fill="white"/>
<path d="M45.3125 79.75C45.3125 80.2307 45.5035 80.6917 45.8434 81.0316C46.1833 81.3715 46.6443 81.5625 47.125 81.5625H52.5625C53.0432 81.5625 53.5042 81.3715 53.8441 81.0316C54.184 80.6917 54.375 80.2307 54.375 79.75C54.375 79.2693 54.184 78.8083 53.8441 78.4684C53.5042 78.1285 53.0432 77.9375 52.5625 77.9375H48.9375V74.3125C48.9375 73.8318 48.7465 73.3708 48.4066 73.0309C48.0667 72.691 47.6057 72.5 47.125 72.5C46.6443 72.5 46.1833 72.691 45.8434 73.0309C45.5035 73.3708 45.3125 73.8318 45.3125 74.3125V79.75Z" fill="white"/>
<path d="M85.1875 81.5625H90.625C91.1057 81.5625 91.5667 81.3715 91.9066 81.0316C92.2465 80.6917 92.4375 80.2307 92.4375 79.75V74.3125C92.4375 73.8318 92.2465 73.3708 91.9066 73.0309C91.5667 72.691 91.1057 72.5 90.625 72.5C90.1443 72.5 89.6833 72.691 89.3434 73.0309C89.0035 73.3708 88.8125 73.8318 88.8125 74.3125V77.9375H85.1875C84.7068 77.9375 84.2458 78.1285 83.9059 78.4684C83.566 78.8083 83.375 79.2693 83.375 79.75C83.375 80.2307 83.566 80.6917 83.9059 81.0316C84.2458 81.3715 84.7068 81.5625 85.1875 81.5625Z" fill="white"/>
<path d="M59.8125 39.875H52.5625C52.0818 39.875 51.6208 40.066 51.2809 40.4059C50.941 40.7458 50.75 41.2068 50.75 41.6875V48.9375C50.75 49.4182 50.941 49.8792 51.2809 50.2191C51.6208 50.559 52.0818 50.75 52.5625 50.75H59.8125C60.2932 50.75 60.7542 50.559 61.0941 50.2191C61.434 49.8792 61.625 49.4182 61.625 48.9375V41.6875C61.625 41.2068 61.434 40.7458 61.0941 40.4059C60.7542 40.066 60.2932 39.875 59.8125 39.875ZM58 47.125H54.375V43.5H58V47.125Z" fill="white"/>
<path d="M87 41.6875C87 41.2068 86.809 40.7458 86.4691 40.4059C86.1292 40.066 85.6682 39.875 85.1875 39.875H77.9375C77.4568 39.875 76.9958 40.066 76.6559 40.4059C76.316 40.7458 76.125 41.2068 76.125 41.6875V48.9375C76.125 49.4182 76.316 49.8792 76.6559 50.2191C76.9958 50.559 77.4568 50.75 77.9375 50.75H85.1875C85.6682 50.75 86.1292 50.559 86.4691 50.2191C86.809 49.8792 87 49.4182 87 48.9375V41.6875ZM83.375 47.125H79.75V43.5H83.375V47.125Z" fill="white"/>
<path d="M61.625 74.3125V67.0625C61.625 66.5818 61.434 66.1208 61.0941 65.7809C60.7542 65.441 60.2932 65.25 59.8125 65.25H52.5625C52.0818 65.25 51.6208 65.441 51.2809 65.7809C50.941 66.1208 50.75 66.5818 50.75 67.0625V74.3125C50.75 74.7932 50.941 75.2542 51.2809 75.5941C51.6208 75.934 52.0818 76.125 52.5625 76.125H59.8125C60.2932 76.125 60.7542 75.934 61.0941 75.5941C61.434 75.2542 61.625 74.7932 61.625 74.3125ZM58 72.5H54.375V68.875H58V72.5Z" fill="white"/>
<path d="M76.125 74.3125C76.125 74.7932 76.316 75.2542 76.6559 75.5941C76.9958 75.934 77.4568 76.125 77.9375 76.125H85.1875C85.6682 76.125 86.1292 75.934 86.4691 75.5941C86.809 75.2542 87 74.7932 87 74.3125V67.0625C87 66.5818 86.809 66.1208 86.4691 65.7809C86.1292 65.441 85.6682 65.25 85.1875 65.25H77.9375C77.4568 65.25 76.9958 65.441 76.6559 65.7809C76.316 66.1208 76.125 66.5818 76.125 67.0625V74.3125ZM79.75 68.875H83.375V72.5H79.75V68.875Z" fill="white"/>
<path d="M56.1875 59.8125H52.5625C52.0818 59.8125 51.6208 60.0035 51.2809 60.3434C50.941 60.6833 50.75 61.1443 50.75 61.625C50.75 62.1057 50.941 62.5667 51.2809 62.9066C51.6208 63.2465 52.0818 63.4375 52.5625 63.4375H56.1875C56.6682 63.4375 57.1292 63.2465 57.4691 62.9066C57.809 62.5667 58 62.1057 58 61.625C58 61.1443 57.809 60.6833 57.4691 60.3434C57.1292 60.0035 56.6682 59.8125 56.1875 59.8125Z" fill="white"/>
<path d="M67.0625 63.4375C67.5432 63.4375 68.0042 63.2465 68.3441 62.9066C68.684 62.5667 68.875 62.1057 68.875 61.625V56.1875C68.875 55.7068 68.684 55.2458 68.3441 54.9059C68.0042 54.566 67.5432 54.375 67.0625 54.375C66.5818 54.375 66.1208 54.566 65.7809 54.9059C65.441 55.2458 65.25 55.7068 65.25 56.1875V59.8125H61.625C61.1443 59.8125 60.6833 60.0035 60.3434 60.3434C60.0035 60.6833 59.8125 61.1443 59.8125 61.625C59.8125 62.1057 60.0035 62.5667 60.3434 62.9066C60.6833 63.2465 61.1443 63.4375 61.625 63.4375H67.0625Z" fill="white"/>
<path d="M74.3125 50.75C74.3125 50.2693 74.1215 49.8083 73.7816 49.4684C73.4417 49.1285 72.9807 48.9375 72.5 48.9375H67.0625C66.5818 48.9375 66.1208 49.1285 65.7809 49.4684C65.441 49.8083 65.25 50.2693 65.25 50.75C65.25 51.2307 65.441 51.6917 65.7809 52.0316C66.1208 52.3715 66.5818 52.5625 67.0625 52.5625H70.6875V61.625C70.6875 62.1057 70.8785 62.5667 71.2184 62.9066C71.5583 63.2465 72.0193 63.4375 72.5 63.4375C72.9807 63.4375 73.4417 63.2465 73.7816 62.9066C74.1215 62.5667 74.3125 62.1057 74.3125 61.625V50.75Z" fill="white"/>
<path d="M77.9375 63.4375H85.1875C85.6682 63.4375 86.1292 63.2465 86.4691 62.9066C86.809 62.5667 87 62.1057 87 61.625C87 61.1443 86.809 60.6833 86.4691 60.3434C86.1292 60.0035 85.6682 59.8125 85.1875 59.8125H77.9375C77.4568 59.8125 76.9958 60.0035 76.6559 60.3434C76.316 60.6833 76.125 61.1443 76.125 61.625C76.125 62.1057 76.316 62.5667 76.6559 62.9066C76.9958 63.2465 77.4568 63.4375 77.9375 63.4375Z" fill="white"/>
<path d="M65.25 76.125C65.7307 76.125 66.1917 75.934 66.5316 75.5941C66.8715 75.2542 67.0625 74.7932 67.0625 74.3125V72.5C67.0625 72.0193 66.8715 71.5583 66.5316 71.2184C66.1917 70.8785 65.7307 70.6875 65.25 70.6875C64.7693 70.6875 64.3083 70.8785 63.9684 71.2184C63.6285 71.5583 63.4375 72.0193 63.4375 72.5V74.3125C63.4375 74.7932 63.6285 75.2542 63.9684 75.5941C64.3083 75.934 64.7693 76.125 65.25 76.125Z" fill="white"/>
<path d="M72.5 76.125C72.9807 76.125 73.4417 75.934 73.7816 75.5941C74.1215 75.2542 74.3125 74.7932 74.3125 74.3125V67.0625C74.3125 66.5818 74.1215 66.1208 73.7816 65.7809C73.4417 65.441 72.9807 65.25 72.5 65.25H65.25C64.7693 65.25 64.3083 65.441 63.9684 65.7809C63.6285 66.1208 63.4375 66.5818 63.4375 67.0625C63.4375 67.5432 63.6285 68.0042 63.9684 68.3441C64.3083 68.684 64.7693 68.875 65.25 68.875H70.6875V74.3125C70.6875 74.7932 70.8785 75.2542 71.2184 75.5941C71.5583 75.934 72.0193 76.125 72.5 76.125Z" fill="white"/>
<path d="M76.125 56.1875C76.125 56.6682 76.316 57.1292 76.6559 57.4691C76.9958 57.809 77.4568 58 77.9375 58C78.4182 58 78.8792 57.809 79.2191 57.4691C79.559 57.1292 79.75 56.6682 79.75 56.1875C80.2307 56.1875 80.6917 55.9965 81.0316 55.6566C81.3715 55.3167 81.5625 54.8557 81.5625 54.375C81.5625 53.8943 81.3715 53.4333 81.0316 53.0934C80.6917 52.7535 80.2307 52.5625 79.75 52.5625H77.9375C77.4568 52.5625 76.9958 52.7535 76.6559 53.0934C76.316 53.4333 76.125 53.8943 76.125 54.375V56.1875Z" fill="white"/>
<path d="M85.1875 52.5625C84.7068 52.5625 84.2458 52.7535 83.9059 53.0934C83.566 53.4333 83.375 53.8943 83.375 54.375V56.1875C83.375 56.6682 83.566 57.1292 83.9059 57.4691C84.2458 57.809 84.7068 58 85.1875 58C85.6682 58 86.1292 57.809 86.4691 57.4691C86.809 57.1292 87 56.6682 87 56.1875V54.375C87 53.8943 86.809 53.4333 86.4691 53.0934C86.1292 52.7535 85.6682 52.5625 85.1875 52.5625Z" fill="white"/>
<path d="M59.8125 54.375V56.1875C59.8125 56.6682 60.0035 57.1292 60.3434 57.4691C60.6833 57.809 61.1443 58 61.625 58C62.1057 58 62.5667 57.809 62.9066 57.4691C63.2465 57.1292 63.4375 56.6682 63.4375 56.1875V54.375C63.4375 53.8943 63.2465 53.4333 62.9066 53.0934C62.5667 52.7535 62.1057 52.5625 61.625 52.5625C61.1443 52.5625 60.6833 52.7535 60.3434 53.0934C60.0035 53.4333 59.8125 53.8943 59.8125 54.375Z" fill="white"/>
<path d="M56.1875 54.375H54.375C54.375 53.8943 54.184 53.4333 53.8441 53.0934C53.5042 52.7535 53.0432 52.5625 52.5625 52.5625C52.0818 52.5625 51.6208 52.7535 51.2809 53.0934C50.941 53.4333 50.75 53.8943 50.75 54.375V56.1875C50.75 56.6682 50.941 57.1292 51.2809 57.4691C51.6208 57.809 52.0818 58 52.5625 58H56.1875C56.6682 58 57.1292 57.809 57.4691 57.4691C57.809 57.1292 58 56.6682 58 56.1875C58 55.7068 57.809 55.2458 57.4691 54.9059C57.1292 54.566 56.6682 54.375 56.1875 54.375Z" fill="white"/>
<path d="M67.0625 45.3125V43.5C67.5432 43.5 68.0042 43.309 68.3441 42.9691C68.684 42.6292 68.875 42.1682 68.875 41.6875C68.875 41.2068 68.684 40.7458 68.3441 40.4059C68.0042 40.066 67.5432 39.875 67.0625 39.875H65.25C64.7693 39.875 64.3083 40.066 63.9684 40.4059C63.6285 40.7458 63.4375 41.2068 63.4375 41.6875V45.3125C63.4375 45.7932 63.6285 46.2542 63.9684 46.5941C64.3083 46.934 64.7693 47.125 65.25 47.125C65.7307 47.125 66.1917 46.934 66.5316 46.5941C66.8715 46.2542 67.0625 45.7932 67.0625 45.3125Z" fill="white"/>
<path d="M74.3125 41.6875C74.3125 41.2068 74.1215 40.7458 73.7816 40.4059C73.4417 40.066 72.9807 39.875 72.5 39.875C72.0193 39.875 71.5583 40.066 71.2184 40.4059C70.8785 40.7458 70.6875 41.2068 70.6875 41.6875V45.3125C70.6875 45.7932 70.8785 46.2542 71.2184 46.5941C71.5583 46.934 72.0193 47.125 72.5 47.125C72.9807 47.125 73.4417 46.934 73.7816 46.5941C74.1215 46.2542 74.3125 45.7932 74.3125 45.3125V41.6875Z" fill="white"/>
<path d="M96.0625 43.5C96.5432 43.5 97.0042 43.309 97.3441 42.9691C97.684 42.6292 97.875 42.1682 97.875 41.6875V34.4375C97.875 32.9954 97.3021 31.6123 96.2824 30.5926C95.2627 29.5729 93.8796 29 92.4375 29H83.375V9.0625C83.3721 6.65986 82.4164 4.35645 80.7175 2.65752C79.0185 0.958599 76.7151 0.00287799 74.3125 0L27.1875 0C24.7849 0.00287799 22.4814 0.958599 20.7825 2.65752C19.0836 4.35645 18.1279 6.65986 18.125 9.0625V106.938C18.1279 109.34 19.0836 111.644 20.7825 113.342C22.4814 115.041 24.7849 115.997 27.1875 116H74.3125C76.7151 115.997 79.0185 115.041 80.7175 113.342C82.4164 111.644 83.3721 109.34 83.375 106.938V87H92.4375C93.8796 87 95.2627 86.4271 96.2824 85.4074C97.3021 84.3877 97.875 83.0046 97.875 81.5625V48.9375C97.875 48.4568 97.684 47.9958 97.3441 47.6559C97.0042 47.316 96.5432 47.125 96.0625 47.125C95.5818 47.125 95.1208 47.316 94.7809 47.6559C94.441 47.9958 94.25 48.4568 94.25 48.9375V81.5625C94.25 82.0432 94.059 82.5042 93.7191 82.8441C93.3792 83.184 92.9182 83.375 92.4375 83.375H45.3125C44.8318 83.375 44.3708 83.184 44.0309 82.8441C43.691 82.5042 43.5 82.0432 43.5 81.5625V34.4375C43.5 33.9568 43.691 33.4958 44.0309 33.1559C44.3708 32.816 44.8318 32.625 45.3125 32.625H92.4375C92.9182 32.625 93.3792 32.816 93.7191 33.1559C94.059 33.4958 94.25 33.9568 94.25 34.4375V41.6875C94.25 42.1682 94.441 42.6292 94.7809 42.9691C95.1208 43.309 95.5818 43.5 96.0625 43.5ZM67.7549 3.625L66.4426 6.24769C66.2922 6.54871 66.0609 6.80191 65.7748 6.97894C65.4886 7.15596 65.1588 7.24982 64.8222 7.25H36.6778C36.3412 7.24982 36.0114 7.15596 35.7252 6.97894C35.439 6.80191 35.2078 6.54871 35.0574 6.24769L33.7451 3.625H67.7549ZM39.875 34.4375V81.5625C39.875 83.0046 40.4479 84.3877 41.4676 85.4074C42.4873 86.4271 43.8704 87 45.3125 87H79.75V106.938C79.75 108.38 79.1771 109.763 78.1574 110.782C77.1377 111.802 75.7546 112.375 74.3125 112.375H27.1875C25.7454 112.375 24.3623 111.802 23.3426 110.782C22.3229 109.763 21.75 108.38 21.75 106.938V9.0625C21.75 7.62039 22.3229 6.23734 23.3426 5.21761C24.3623 4.19788 25.7454 3.625 27.1875 3.625H29.6924L31.8148 7.86988C32.2636 8.77514 32.9571 9.53653 33.8166 10.0677C34.6762 10.5989 35.6673 10.8785 36.6778 10.875H64.8222C65.8327 10.8785 66.8238 10.5989 67.6834 10.0677C68.5429 9.53653 69.2364 8.77514 69.6852 7.86988L71.8076 3.625H74.3125C75.7546 3.625 77.1377 4.19788 78.1574 5.21761C79.1771 6.23734 79.75 7.62039 79.75 9.0625V29H45.3125C43.8704 29 42.4873 29.5729 41.4676 30.5926C40.4479 31.6123 39.875 32.9954 39.875 34.4375Z" fill="white"/>
</svg>
