<svg width="116" height="116" viewBox="0 0 116 116" fill="none" xmlns="http://www.w3.org/2000/svg">
<path d="M81.128 58.6864C79.2099 56.7222 77.0561 55.0149 74.7182 53.6054C78.5363 49.4184 80.6579 43.9032 80.6538 38.1758C80.6538 25.6722 70.7157 15.5 58.4999 15.5C46.2842 15.5 36.3461 25.6722 36.3461 38.1758C36.3429 43.9039 38.465 49.4195 42.2834 53.6071C37.4796 56.5021 33.497 60.6299 30.7289 65.5827C27.9609 70.5355 26.5032 76.1418 26.5 81.8477V95.6211C26.5 97.1803 27.1051 98.6756 28.1823 99.7781C29.2594 100.881 30.7203 101.5 32.2436 101.5H84.7563C86.2796 101.5 87.7405 100.881 88.8176 99.7781C89.8948 98.6756 90.4999 97.1803 90.4999 95.6211V81.8477C90.511 77.5446 89.6885 73.282 88.0798 69.3065C86.4712 65.3309 84.1083 61.7213 81.128 58.6864ZM58.4999 20.5391C61.9079 20.5391 65.2393 21.5734 68.0728 23.5114C70.9064 25.4493 73.1149 28.2038 74.4191 31.4265C75.7232 34.6492 76.0645 38.1953 75.3996 41.6165C74.7347 45.0377 73.0937 48.1803 70.6839 50.6468C68.2742 53.1134 65.2039 54.7931 61.8615 55.4736C58.5191 56.1541 55.0545 55.8049 51.906 54.47C48.7575 53.1351 46.0664 50.8746 44.1731 47.9742C42.2798 45.0739 41.2692 41.664 41.2692 38.1758C41.2744 33.4999 43.0915 29.017 46.3217 25.7106C49.552 22.4043 53.9317 20.5444 58.4999 20.5391ZM85.5768 95.6211C85.5768 95.8438 85.4904 96.0574 85.3365 96.215C85.1826 96.3725 84.9739 96.4609 84.7563 96.4609H32.2436C32.026 96.4609 31.8173 96.3725 31.6634 96.215C31.5095 96.0574 31.4231 95.8438 31.4231 95.6211V81.8477C31.4269 76.7172 32.82 71.6883 35.4478 67.3194C38.0756 62.9506 41.8351 59.4128 46.3088 57.0991C49.9254 59.5472 54.1656 60.8524 58.5016 60.8524C62.8375 60.8524 67.0777 59.5472 70.6944 57.0991C75.1679 59.4127 78.9272 62.9505 81.5545 67.3195C84.1817 71.6884 85.5741 76.7174 85.5768 81.8477V95.6211Z" fill="white"/>
</svg>
